<?xml version="1.0" encoding="iso-8859-1"?>
<!-- Generator: Adobe Illustrator 19.0.0, SVG Export Plug-In . SVG Version: 6.00 Build 0)  -->
<svg version="1.1" id="Layer_1" xmlns="http://www.w3.org/2000/svg" xmlns:xlink="http://www.w3.org/1999/xlink" x="0px" y="0px"
	 viewBox="0 0 164.804 164.804" style="enable-background:new 0 0 164.804 164.804;" xml:space="preserve">
<g id="XMLID_9326_">
	<g id="XMLID_9327_">
		<g id="XMLID_9328_">
			<path id="XMLID_9329_" style="fill:none;stroke:#FFFFFF;stroke-width:3;stroke-miterlimit:10;" d="M82.387,1.551
				c-44.623,0-80.837,36.176-80.837,80.837c0,44.653,36.213,80.866,80.837,80.866c44.653,0,80.866-36.214,80.866-80.866
				C163.254,37.727,127.04,1.551,82.387,1.551L82.387,1.551z M130.37,84.078l-70.839,45.234c-0.375,0.308-0.86,0.456-1.323,0.456
				l-1.798-0.228c-0.72-0.316-2.025-1.095-2.025-1.897V37.154c0-0.801,1.305-1.551,2.025-1.889c0.75-0.375,2.064-0.294,2.696,0.199
				l71.051,45.255c0.492,0.434,0.915,1.037,0.915,1.669C131.073,83.049,130.863,83.652,130.37,84.078L130.37,84.078z M130.37,84.078
				"/>
		</g>
	</g>
</g>
</svg>
