<?xml version="1.0" encoding="iso-8859-1"?>
<!-- Generator: Adobe Illustrator 19.0.0, SVG Export Plug-In . SVG Version: 6.00 Build 0)  -->
<svg version="1.1" id="Layer_1" xmlns="http://www.w3.org/2000/svg" xmlns:xlink="http://www.w3.org/1999/xlink" x="0px" y="0px"
	 viewBox="0 0 118.806 118.806" style="enable-background:new 0 0 118.806 118.806;" xml:space="preserve">
<g id="XMLID_9285_">
	<g id="XMLID_9286_">
		
			<circle id="XMLID_9303_" style="fill:none;stroke:#0F2E3E;stroke-width:3.7678;stroke-miterlimit:10;" cx="59.403" cy="59.403" r="57.519"/>
		<path id="XMLID_9287_" style="fill:#0F2E3E;" d="M22.522,72.229c0.175,0,0.317-0.137,0.343-0.331l0.923-7.244l-0.921-7.407
			c-0.029-0.194-0.171-0.331-0.346-0.331c-0.173,0-0.318,0.142-0.343,0.331l-0.81,7.407l0.81,7.241
			C22.204,72.089,22.349,72.229,22.522,72.229z M19.804,69.156L19.804,69.156L19.804,69.156L19.804,69.156z M19.475,69.478
			c0.166,0,0.303-0.133,0.329-0.322l0.715-4.503l-0.715-4.58c-0.026-0.189-0.163-0.322-0.329-0.322
			c-0.173,0-0.307,0.135-0.331,0.324l-0.604,4.578l0.604,4.503C19.168,69.343,19.302,69.478,19.475,69.478z M26.177,55.869
			c-0.026-0.234-0.201-0.407-0.415-0.407c-0.218,0-0.393,0.173-0.414,0.407l-0.769,8.787l0.769,8.465
			c0.021,0.235,0.196,0.405,0.414,0.405c0.213,0,0.388-0.17,0.412-0.402l0.876-8.468L26.177,55.869z M29.029,73.862
			c0.251,0,0.46-0.201,0.483-0.474l0,0l0.824-8.733l-0.824-9.026c-0.024-0.274-0.232-0.476-0.483-0.476
			c-0.255,0-0.464,0.201-0.485,0.476l-0.727,9.026l0.727,8.733C28.565,73.661,28.773,73.862,29.029,73.862z M32.322,74.006
			c0.294,0,0.53-0.234,0.552-0.544l0,0l0.779-8.806l-0.779-8.377c-0.021-0.308-0.258-0.542-0.552-0.542
			c-0.298,0-0.537,0.237-0.556,0.547l-0.686,8.372l0.686,8.806C31.785,73.772,32.023,74.006,32.322,74.006z M36.184,64.661
			l-0.326-13.625c-0.019-0.346-0.091-0.618-0.422-0.618c-0.331,0-0.505,0.272-0.521,0.618l-0.593,13.625l0.669,8.806
			c0.016,0.343-0.506,0.616-0.175,0.616c0.332,0-0.173-0.272-0.173-0.621v0.005L36.184,64.661z M38.465,74.097
			c0.371,0,0.178-0.303,0.178-0.686v0.005l1.2-8.754L39.42,47.923c-0.019-0.386-0.195-0.686-0.566-0.686
			c-0.372,0-0.612,0.301-0.629,0.686l-0.569,16.738l0.358,8.752C38.031,73.794,38.093,74.097,38.465,74.097z M42.357,45.768
			c-0.415,0-0.75,0.334-0.764,0.76l-0.564,18.135l0.564,8.661c0.014,0.421-0.389,0.753,0.025,0.753c0.412,0,0.025-0.332,0.025-0.758
			v0.005l1.373-8.661l-0.265-18.135C42.735,46.102,42.768,45.768,42.357,45.768z M45.781,74.097c0.455,0,0.862-0.365,0.862-0.829
			v0.005l0.559-8.607l-0.598-18.748c-0.016-0.466-0.387-0.829-0.842-0.829c-0.454,0-0.824,0.362-0.839,0.829l-0.522,18.746
			l0.533,8.61C44.948,73.732,45.327,74.097,45.781,74.097z M49.46,74.089c0.494,0,1.183-0.4,1.183-0.902v0.005l0.259-8.527
			l-0.677-18.27c-0.014-0.504-0.479-0.899-0.974-0.899c-0.497,0-0.932,0.395-0.941,0.899l-0.496,18.27l0.609,8.524
			C48.432,73.689,48.962,74.089,49.46,74.089z M54.112,64.668l-0.493-17.607c-0.015-0.542-0.447-0.968-0.982-0.968
			c-0.537,0-0.968,0.426-0.98,0.971L51.22,64.668l0.437,8.472c0.01,0.535,0.454,0.964,0.991,0.964c0.535,0,0.994-0.429,0.994-0.973
			v0.009L54.112,64.668z M56.353,74.12c0.566,0,1.29-0.469,1.29-1.044v0.007l0.197-8.415l-0.562-20.947
			c-0.009-0.573-0.541-1.039-1.107-1.039c-0.568,0-1.067,0.466-1.077,1.039l-0.411,20.942c0,0.014,0.51,8.42,0.51,8.42
			C55.202,73.651,55.785,74.12,56.353,74.12z M59.573,40.712c-0.608,0-1.108,0.499-1.117,1.115l-0.457,22.844l0.457,8.292
			c0.009,0.604,1.485,1.105,2.093,1.105c0.606,0,2.094-0.502,2.094-1.113v0.01l-0.479-8.294l-0.985-22.846
			C61.169,41.212,60.179,40.712,59.573,40.712z M63.241,74.127c0.026,0.005,27.681,0.015,27.861,0.015
			c5.603,0,10.017-4.538,10.017-10.141c0-5.603-4.6-10.141-10.203-10.141c-1.387,0-2.746,0.282-3.954,0.786
			c-0.807-9.142-8.486-16.31-17.836-16.31c-2.289,0-4.029,0.45-5.998,1.212c-0.765,0.296-0.485,0.602-0.485,1.193v32.187
			C62.643,73.547,62.632,74.066,63.241,74.127z"/>
	</g>
</g>
</svg>
